<svg width="100" height="100" viewBox="0 0 100 100" fill="none" xmlns="http://www.w3.org/2000/svg">
<path d="M5.37634 14.6789L100 0V100L0 95.4128L5.37634 14.6789Z" fill="#00C2BD"/>
<path d="M24.1348 91.352C22.2148 90.328 20.9988 89.272 20.4868 88.184C19.9748 87.096 19.7188 86.168 19.7188 85.4C19.7188 83.672 20.3268 81.368 21.5428 78.488C22.8228 75.544 24.5188 72.184 26.6308 68.408C28.7428 64.632 31.1428 60.696 33.8307 56.6C31.8468 56.472 29.9588 56.376 28.1668 56.312C26.3748 56.248 24.0708 56.216 21.2548 56.216H19.7188C20.6148 53.912 22.0228 52.312 23.9428 51.416C25.9268 50.456 28.2308 49.976 30.8548 49.976C31.9428 49.976 33.0628 50.04 34.2148 50.168C35.4308 50.296 36.6788 50.424 37.9588 50.552C42.7588 43.64 47.4308 37.336 51.9748 31.64C56.5188 25.88 60.4228 21.432 63.6868 18.296C66.7588 15.224 68.9988 13.688 70.4067 13.688C71.3028 13.688 72.2948 14.04 73.3828 14.744C74.5348 15.448 75.7188 16.344 76.9348 17.432C76.2948 17.944 75.4628 19.256 74.4388 21.368C73.4788 23.48 72.4228 26.168 71.2708 29.432C70.1828 32.632 69.0628 36.152 67.9108 39.992C66.8228 43.832 65.8308 47.736 64.9348 51.704C64.0388 55.672 63.3028 59.48 62.7268 63.128C62.2148 66.712 61.9588 69.88 61.9588 72.632C61.9588 77.688 63.0788 80.216 65.3188 80.216C66.7908 80.216 68.6148 79.096 70.7908 76.856C72.9668 74.616 75.3988 70.968 78.0868 65.912L79.8148 67.736C77.8308 72.984 75.2388 77.304 72.0388 80.696C68.9028 84.088 65.5428 85.784 61.9588 85.784C58.8868 85.784 56.7108 84.472 55.4308 81.848C54.1508 79.16 53.5108 75.512 53.5108 70.904C53.5108 69.432 53.6068 67.768 53.7988 65.912C53.9908 64.056 54.3108 61.752 54.7588 59C51.9428 58.552 49.4468 58.2 47.2708 57.944C45.0948 57.688 43.0148 57.432 41.0308 57.176C37.9588 62.616 34.9828 68.248 32.1028 74.072C29.2228 79.896 26.5668 85.656 24.1348 91.352ZM55.7188 54.296C56.5508 50.52 57.5108 46.712 58.5988 42.872C59.7508 38.968 60.9348 35.256 62.1508 31.736C63.4308 28.152 64.6788 24.952 65.8948 22.136C62.9508 24.44 59.5588 28.248 55.7188 33.56C51.9428 38.808 48.0708 44.856 44.1028 51.704C46.0228 52.088 47.9428 52.504 49.8628 52.952C51.7828 53.4 53.7348 53.848 55.7188 54.296Z" fill="white"/>
</svg>
