<?xml version="1.0" standalone="no"?>
<!DOCTYPE svg PUBLIC "-//W3C//DTD SVG 20010904//EN"
 "http://www.w3.org/TR/2001/REC-SVG-20010904/DTD/svg10.dtd">
<svg version="1.0" xmlns="http://www.w3.org/2000/svg"
 width="200.000000pt" height="200.000000pt" viewBox="0 0 200.000000 200.000000"
 preserveAspectRatio="xMidYMid meet">

<g transform="translate(0.000000,200.000000) scale(0.100000,-0.100000)"
fill="#000000" stroke="none">
<path d="M774 1048 c-23 -56 -22 -83 3 -49 14 20 42 29 44 14 6 -57 19 -66 18
-12 -2 106 -32 128 -65 47z m32 -15 c-11 -11 -17 4 -9 23 7 18 8 18 11 1 2
-10 1 -21 -2 -24z"/>
<path d="M1137 1093 c-2 -5 -7 -21 -11 -37 -6 -26 -8 -27 -20 -11 -7 10 -18
15 -24 11 -14 -9 -16 -36 -3 -36 5 0 13 -9 16 -20 12 -37 31 -21 47 40 9 33
12 60 8 60 -5 0 -11 -3 -13 -7z"/>
<path d="M1266 1085 c-3 -8 -8 -37 -12 -65 -6 -43 -4 -50 10 -50 36 0 95 43
75 55 -6 4 -8 18 -5 31 5 17 1 26 -13 34 -28 14 -48 13 -55 -5z m58 -14 c7
-11 -22 -23 -35 -15 -5 3 -7 10 -4 15 8 12 32 12 39 0z m6 -50 c0 -10 -50 -25
-57 -17 -3 2 -2 9 2 15 8 13 55 15 55 2z"/>
<path d="M665 1080 c-12 -19 -18 -116 -7 -105 6 6 12 26 15 45 4 31 5 33 12
12 6 -18 10 -20 21 -11 8 6 12 15 9 19 -3 5 0 12 6 16 9 5 11 -4 6 -34 -6 -49
8 -66 17 -21 8 41 8 89 -1 89 -3 0 -15 -7 -25 -16 -16 -16 -18 -16 -24 0 -7
18 -20 21 -29 6z"/>
<path d="M880 1075 c-16 -20 -5 -45 20 -45 29 0 25 -19 -7 -31 -19 -7 -23 -13
-15 -21 8 -8 18 -7 36 6 32 20 32 30 5 50 -22 15 -18 36 7 36 8 0 14 5 14 10
0 16 -46 12 -60 -5z"/>
<path d="M967 1072 c-13 -14 -14 -21 -5 -30 7 -7 18 -12 25 -12 22 0 14 -19
-14 -34 -23 -12 -25 -16 -11 -21 17 -7 68 20 68 36 0 4 -9 15 -21 23 -22 15
-18 36 7 36 8 0 14 5 14 10 0 17 -46 11 -63 -8z"/>
<path d="M1040 1036 c0 -51 11 -78 24 -58 8 14 -5 112 -15 112 -5 0 -9 -24 -9
-54z"/>
<path d="M1166 1053 c-10 -66 -8 -73 22 -73 15 0 34 5 42 10 11 7 5 10 -23 10
-41 0 -49 22 -11 28 30 6 41 22 15 22 -29 0 -23 22 10 31 20 6 18 7 -12 8 -34
1 -37 -1 -43 -36z"/>
</g>
</svg>
