<?xml version="1.0" standalone="no"?>
<!DOCTYPE svg PUBLIC "-//W3C//DTD SVG 20010904//EN"
 "http://www.w3.org/TR/2001/REC-SVG-20010904/DTD/svg10.dtd">
<svg version="1.0" xmlns="http://www.w3.org/2000/svg"
 width="200.000000pt" height="200.000000pt" viewBox="0 0 200.000000 200.000000"
 preserveAspectRatio="xMidYMid meet">
<metadata>
Created by potrace 1.16, written by Peter Selinger 2001-2019
</metadata>
<g transform="translate(0.000000,200.000000) scale(0.100000,-0.100000)"
fill="#000000" stroke="none">
<path d="M0 1000 l0 -1000 1000 0 1000 0 0 1000 0 1000 -1000 0 -1000 0 0
-1000z m975 465 c73 -18 409 -184 448 -220 54 -52 21 -69 -64 -32 -32 14 -59
24 -59 22 0 -2 41 -36 90 -75 50 -40 92 -82 95 -93 3 -12 -3 -45 -13 -73 l-19
-50 28 -34 c16 -18 26 -37 23 -42 -3 -4 -1 -8 3 -8 5 0 10 -11 11 -25 2 -27
-20 -44 -62 -47 -34 -3 -26 -11 55 -59 77 -44 79 -52 36 -113 -17 -25 -24 -27
-56 -22 -19 3 -48 15 -63 26 -15 11 -32 20 -38 20 -16 0 -12 -17 8 -32 16 -12
18 -22 13 -70 0 -10 -15 -25 -32 -33 -26 -14 -35 -14 -67 -3 -20 7 -80 14
-132 14 -114 2 -137 6 -193 33 -24 12 -46 21 -50 21 -3 0 -27 15 -52 33 -25
17 -83 57 -129 87 -46 30 -107 73 -137 96 -71 53 -73 54 -89 44 -11 -7 -8 -11
14 -20 16 -6 26 -13 23 -16 -3 -3 -26 6 -51 21 -48 28 -59 39 -28 28 10 -4 3
9 -17 30 -48 50 -82 157 -50 157 6 0 10 12 9 28 -4 49 -2 51 35 45 29 -5 35
-3 35 13 0 10 7 44 16 76 12 41 21 57 30 54 17 -6 13 29 -4 46 -20 20 -15 58
8 58 22 0 25 12 9 41 -8 16 -7 26 6 45 17 26 40 26 95 0 23 -11 28 -10 43 10
17 22 18 23 68 8 49 -15 52 -15 66 5 17 25 55 27 138 6z"/>
<path d="M590 1226 c0 -3 14 -12 30 -21 17 -9 30 -13 30 -11 0 3 -13 12 -30
21 -16 9 -30 13 -30 11z"/>
<path d="M657 1108 c27 -9 30 -13 18 -22 -18 -13 -33 -116 -17 -116 6 0 12 19
14 43 3 39 5 40 14 18 l11 -24 17 24 18 24 -6 -33 c-7 -41 17 -82 48 -82 19 1
18 2 -6 16 -27 14 -27 17 -21 74 6 61 -2 75 -27 45 -10 -12 -16 -13 -24 -5 -8
8 -7 13 3 19 9 6 4 12 -20 20 -17 6 -37 11 -43 10 -6 -1 4 -6 21 -11z"/>
<path d="M772 1049 c-23 -56 -20 -70 22 -90 18 -9 18 -7 -3 10 -19 17 -21 24
-11 36 20 24 37 17 46 -17 l8 -33 3 37 c5 47 -9 102 -28 106 -9 2 -23 -16 -37
-49z m35 -4 c0 -8 -4 -12 -9 -9 -5 3 -6 10 -3 15 9 13 12 11 12 -6z"/>
<path d="M1130 1074 c-6 -14 -10 -30 -10 -36 0 -6 -8 0 -19 13 l-18 23 -7 -22
c-8 -22 19 -71 39 -72 6 0 18 27 27 60 16 59 7 84 -12 34z"/>
<path d="M1266 1085 c-3 -8 -8 -37 -12 -65 -6 -43 -4 -50 10 -50 36 0 95 43
75 55 -6 4 -8 18 -5 31 5 17 1 26 -13 34 -28 14 -48 13 -55 -5z m58 -14 c3 -5
-3 -11 -14 -14 -20 -5 -35 5 -23 17 9 9 31 7 37 -3z m-8 -56 c-26 -19 -47 -19
-40 0 4 8 18 15 33 15 25 -1 25 -1 7 -15z"/>
<path d="M882 1078 c-19 -19 -14 -38 14 -48 14 -6 22 -14 19 -20 -4 -6 -18 -4
-38 6 -25 12 -28 12 -14 1 10 -8 16 -20 15 -27 -5 -21 18 -22 43 0 l24 20 -23
20 c-24 20 -22 40 4 40 8 0 14 5 14 10 0 14 -43 13 -58 -2z"/>
<path d="M964 1069 c-16 -17 -16 -22 -4 -29 8 -6 21 -10 28 -10 21 0 13 -19
-15 -34 -23 -12 -25 -16 -11 -21 17 -7 68 20 68 36 0 4 -9 15 -21 23 -22 15
-18 36 7 36 8 0 14 5 14 10 0 18 -46 10 -66 -11z"/>
<path d="M1042 1030 c2 -45 0 -59 -9 -55 -20 7 -15 -3 7 -15 11 -6 19 -7 18
-3 -1 4 3 18 10 30 8 14 9 24 2 28 -5 3 -10 22 -10 41 0 19 -5 34 -11 34 -7 0
-10 -21 -7 -60z"/>
<path d="M1166 1053 c-12 -77 -10 -82 30 -73 49 11 54 20 11 20 -28 0 -35 3
-31 15 4 8 17 15 30 15 13 0 24 5 24 10 0 6 -9 10 -21 10 -28 0 -19 23 12 31
20 6 18 7 -12 8 -34 1 -37 -1 -43 -36z"/>
<path d="M1092 934 c10 -10 20 -15 24 -12 3 4 -5 12 -18 18 -22 12 -22 12 -6
-6z"/>
<path d="M902 810 c0 -14 2 -19 5 -12 2 6 2 18 0 25 -3 6 -5 1 -5 -13z"/>
<path d="M1102 810 c0 -14 2 -19 5 -12 2 6 2 18 0 25 -3 6 -5 1 -5 -13z"/>
<path d="M675 786 c11 -8 28 -23 38 -33 17 -17 18 -17 11 0 -3 10 -21 25 -38
33 -27 13 -29 13 -11 0z"/>
<path d="M730 790 c0 -5 5 -10 11 -10 5 0 7 5 4 10 -3 6 -8 10 -11 10 -2 0 -4
-4 -4 -10z"/>
</g>
</svg>
