<?xml version="1.0" encoding="UTF-8"?>
<svg width="100pt" height="100pt" version="1.1" viewBox="0 0 100 100" xmlns="http://www.w3.org/2000/svg">
 <g>
  <path d="m49.797 99.59c-27.461 0-49.797-22.34-49.797-49.797s22.336-49.793 49.797-49.793c27.457 0 49.793 22.336 49.793 49.793s-22.336 49.797-49.793 49.797zm0-94.207c-24.488 0-44.41 19.922-44.41 44.41s19.922 44.41 44.41 44.41c24.484 0 44.406-19.922 44.406-44.41 0-24.484-19.922-44.41-44.406-44.41z"/>
  <path d="m46.238 9.6836s-7.1836 6.9062-7.1836 18.602c0 11.695 5.7227 19.711 12.715 24.867 6.9961 5.1562 16.113 11.695 16.113 22.379s-5.7109 13.906-5.7109 13.906 2.7617-3.3125 2.7617-8.5664c0-5.25-2.8555-12.523-11.469-18.785-8.6094-6.2656-11.738-9.0234-15.238-14.828 0 0 2.3906 12.062 10.129 22.195 0 0-20.445-14.734-20.445-32.785 0-18.055 18.328-26.984 18.328-26.984z"/>
  <path d="m48.906 62.73s12.621 13.723 9.8555 26.707c0 0 2.3008-2.9453 2.3008-7.2773 0.003906-4.3281-2.207-11.785-12.156-19.43z"/>
  <path d="m48.008 16.172s-5.3828 17.852 2.7578 28.336c0 0-3.3555-1.6523-5.2383-5.5469-1.8867-3.8945-3.1445-11.574 2.4805-22.789z"/>
 </g>
</svg>
