<?xml version="1.0" encoding="UTF-8"?>
<svg width="100pt" height="100pt" version="1.1" viewBox="0 0 100 100" xmlns="http://www.w3.org/2000/svg">
 <g>
  <path d="m50.312 15.812l-39 68.375"/>
  <path d="m11.309 87.188c-0.50391 0-1.0156-0.12891-1.4844-0.39453-1.4375-0.82031-1.9414-2.6523-1.1211-4.0938l39-68.375c0.82031-1.4375 2.6523-1.9414 4.0938-1.1211 1.4375 0.82031 1.9414 2.6523 1.1172 4.0938l-39 68.375c-0.55078 0.97266-1.5625 1.5156-2.6055 1.5156z"/>
  <path d="m88.688 87.188h-77.375c-1.6562 0-3-1.3438-3-3s1.3438-3 3-3h77.375c1.6562 0 3 1.3438 3 3s-1.3438 3-3 3z"/>
  <path d="m88.691 87.188c-1.0508 0-2.0664-0.55469-2.6172-1.5312l-38.379-68.375c-0.8125-1.4453-0.29687-3.2734 1.1484-4.0859s3.2734-0.29687 4.0859 1.1484l38.375 68.375c0.8125 1.4453 0.29687 3.2734-1.1484 4.0859-0.46484 0.25781-0.96875 0.38281-1.4648 0.38281z"/>
  <path d="m49.945 77.117c-5.5273 0-10.023-4.4961-10.023-10.023s4.4961-10.023 10.023-10.023c5.5273 0 10.027 4.4961 10.027 10.023-0.003906 5.5234-4.5 10.023-10.027 10.023zm0-18.949c-4.9219 0-8.9219 4.0039-8.9219 8.9258 0 4.918 4.0039 8.9219 8.9219 8.9219 4.9219 0 8.9258-4.0039 8.9258-8.9219 0-4.9219-4.0039-8.9258-8.9258-8.9258z"/>
  <path d="m59.48 57.297c-1.2031 0.13672-0.87891 0.019531-2.168 0.84375s-0.72266 0.6875 0.34375-0.92969c1.0664-1.6172-0.56641-7.0312-0.48047-4.7461 0.085938 2.2852-3.043 3.1289-2.1836 2.4766 0.85937-0.65234 0.60156-1.082 0.89453-1.9062 0.29297-0.82422-0.85938-4.6094-0.89453-3.7305-0.035157 0.875-0.42969 1.4258-1.582 1.8008-1.1523 0.37109-1.4258 0.71094 0.17188-0.87109 1.5977-1.582-0.61719-5.7266-0.58594-4.4688 0.035156 1.2539-0.6875 2.082-1.7695 1.9102-1.082-0.17188 0.1875 0.53125 0-2.8203-0.1875-3.3516-2.3555-3.3008-1.8242-5.7422 0.53125-2.4414-0.56641-0.78906-1.2891 0-0.72266 0.78906-1.2891 3.8867-0.13672 5.9141 1.1523 2.0273-0.96484 4.0742-0.56641 2.7188 0.39453-1.3594-4.2656-3.3164-2.5117-1.9102 1.7539 1.4102 0.56641 5.7266 0.46484 5.3828-0.10156-0.34375 0.22266-1.1172-1.5117-1.9961-1.7344-0.87891-2.8008-2.2539-1.1016 0.39453 1.7031 2.6484 1.4102 7.8906 0.60156 5.6406-0.80859-2.2539-2.6836-2.1484-2.7148-2.2188-0.035157-0.070312 2.1836 1.5977 0.65234 4.9844-1.4688 3.2461-0.47266 6.1055-0.38672 6.3398 1.207-3.8477 4.7969-6.6367 9.0391-6.6367 4.2188 0 7.793 2.7578 9.0195 6.5703 0.058593-0.046875 0.10547-0.097656 0.14062-0.15234 1.1523-1.875-0.37891-4.5391 0.15625-5.793 0.53125-1.2617 1.4258-1.1953 0.22266-1.0547zm-11.004-15.312s0.54297 1.5117 1.0508 1.9961c0.50391 0.48047-0.35938 1.9922-0.35938 1.9922s-0.070313-1.3477-0.6875-2.0625c-0.95703-1.1016-0.09375-0.87109-0.003907-1.9258zm4.7695 15.223c0.27344 1.375-0.48047 0-3.0938 0-2.6133 0-3.9531 0.99609-3.9531 0.99609s0.015625 0 0.34375-0.85938-0.85938-2.8203 0.77344-0.98047c1.6328 1.8398 0.58594 0.085938 0.75781-0.34375 0.23438-0.57812-0.41406-1.2891-0.32812-1.3086 0.085937-0.019532 0.46484-0.13672 1.0312 0.87891s0.42969 0.87891 0.6875 0.23828c0.25781-0.63672-0.58594-0.49609-0.070313-1.9922 0.51562-1.4961 0.44531-0.32813 0.55078 0.48047 0.10547 0.80859 1.168 0.70312 0.82422 1.7188s0.48047 0.41406 0.51562-0.73828 0.050782-0.91016 0.61719 0-0.25781 2.0273 0.44531 1.0508c0.70312-0.98047 1.375-0.99609 1.3398-0.85938-0.03125 0.13672-0.71484 0.33984-0.44141 1.7188z"/>
 </g>
</svg>
