<?xml version="1.0" standalone="no"?>
<!DOCTYPE svg PUBLIC "-//W3C//DTD SVG 20010904//EN"
 "http://www.w3.org/TR/2001/REC-SVG-20010904/DTD/svg10.dtd">
<svg version="1.0" xmlns="http://www.w3.org/2000/svg"
 width="4500.000000pt" height="4500.000000pt" viewBox="0 0 4500.000000 4500.000000"
 preserveAspectRatio="xMidYMid meet">

<g transform="translate(0.000000,4500.000000) scale(0.100000,-0.100000)"
fill="#000000" stroke="none">
<path d="M25352 24358 c-235 -716 -362 -1141 -362 -1209 0 -14 -6 -19 -17 -17
-15 3 -27 62 -80 378 -34 206 -65 390 -68 408 -6 31 -8 32 -52 32 -27 0 -53
-6 -63 -15 -15 -14 -20 -12 -54 20 -63 59 -95 63 -240 26 -69 -17 -128 -31
-131 -31 -3 0 -5 13 -5 29 0 35 -17 49 -34 30 -20 -22 -236 -525 -236 -548 0
-17 6 -21 33 -21 l33 0 63 209 c35 115 67 214 71 221 4 6 20 10 37 8 l29 -3
-201 -570 -201 -570 -33 -3 c-29 -3 -33 -1 -29 15 5 16 205 559 223 606 6 14
1 17 -28 17 -35 0 -35 0 -57 -72 -71 -238 -81 -268 -95 -268 -19 0 -19 0 1
653 16 504 16 529 -1 547 -16 18 -17 20 -2 20 21 0 22 33 2 50 -20 16 -19 49
2 72 15 17 15 18 0 18 -20 0 -20 -6 -2 109 l16 94 -33 34 c-41 43 -61 42 -77
-2 -14 -39 -50 -69 -78 -63 -13 2 -21 22 -33 83 l-15 80 -49 3 c-42 3 -56 -2
-102 -33 -56 -36 -67 -62 -39 -85 13 -11 15 -74 15 -459 0 -343 -3 -450 -12
-459 -10 -10 -10 -15 1 -21 11 -7 10 -22 -3 -86 -12 -58 -16 -136 -16 -315 0
-202 -2 -239 -15 -250 -12 -10 -13 -15 -4 -21 10 -6 10 -11 0 -23 -11 -13 -11
-19 -1 -31 11 -13 11 -20 0 -39 -10 -20 -7 -69 19 -296 18 -150 30 -274 27
-277 -2 -3 -32 16 -65 42 l-61 46 0 -64 c0 -58 4 -71 35 -117 37 -56 52 -97
61 -177 7 -57 22 -67 55 -37 19 17 19 16 45 -88 l6 -28 152 0 152 0 23 98 c33
135 77 269 101 302 11 16 42 86 69 157 140 370 295 731 351 822 27 42 30 44
30 20 0 -65 -46 -262 -92 -394 -70 -200 -211 -492 -366 -762 l-82 -143 16 -65
c23 -89 37 -87 141 18 78 79 82 86 123 197 151 412 326 817 356 827 6 2 36
-136 77 -362 l66 -366 44 -49 c41 -46 87 -140 87 -180 0 -10 -8 -20 -17 -22
-15 -3 -14 -7 9 -29 35 -33 132 -59 225 -62 84 -2 110 14 119 75 8 45 17 54
34 33 16 -20 39 -19 62 2 17 15 18 14 18 -15 l0 -31 46 14 c25 7 48 16 50 18
2 2 117 393 255 868 137 475 310 1072 384 1327 74 254 135 473 135 485 0 36
-59 87 -101 87 l-36 0 -12 -97 c-18 -142 -18 -143 -52 -143 -44 0 -45 22 -5
82 56 82 47 156 -23 192 -27 14 -156 36 -212 36 -27 0 -29 -3 -29 -35 0 -28
-4 -35 -19 -35 -14 0 -24 13 -36 50 -34 101 -36 96 -223 -472z m234 335 c-3
-10 -120 -403 -262 -873 -141 -470 -259 -863 -261 -872 -3 -10 -14 -18 -25
-18 -17 0 -18 5 -13 53 19 158 178 719 412 1455 l87 272 34 0 c27 0 32 -3 28
-17z m-86 -1307 c0 -14 -55 -260 -66 -298 -3 -10 -12 -18 -20 -18 -20 0 -18
16 18 183 27 124 35 147 50 147 10 0 18 -6 18 -14z m-210 -823 c0 -16 -14 -99
-31 -185 -27 -136 -34 -158 -50 -158 -27 0 -25 27 16 206 19 84 35 156 35 159
0 3 7 5 15 5 10 0 15 -10 15 -27z"/>
<path d="M18202 24799 c-68 -11 -190 -53 -264 -90 -32 -16 -60 -29 -63 -29
-11 0 -4 24 12 42 15 17 13 18 -50 18 l-65 0 -16 -42 c-70 -187 -152 -428
-148 -433 3 -3 15 -5 26 -5 36 0 66 -28 66 -61 0 -22 -5 -29 -19 -29 -10 0
-24 7 -31 15 -26 32 -49 17 -85 -55 -40 -79 -41 -87 -18 -112 15 -17 15 -18
-3 -18 -11 0 -25 5 -32 12 -14 14 -15 9 -31 -76 -6 -33 -11 -95 -11 -138 0
-82 7 -93 42 -61 22 20 23 12 2 -78 -9 -41 -21 -69 -28 -69 -19 0 -46 33 -46
56 0 27 -16 48 -32 42 -12 -5 -165 -367 -508 -1200 l-77 -186 51 -51 50 -50
-17 -103 -16 -103 34 -35 35 -35 0 57 c0 88 19 158 50 190 26 26 80 39 80 20
0 -5 -13 -48 -30 -97 -16 -49 -30 -92 -30 -96 0 -8 84 -69 94 -69 3 0 6 7 6
15 0 8 8 15 19 15 10 0 24 -7 31 -15 8 -10 30 -15 61 -15 46 0 49 2 49 26 0
14 16 46 35 71 62 81 131 255 170 427 19 82 40 115 102 158 95 65 247 118 483
168 l125 26 3 32 c4 38 2 38 -95 18 -62 -13 -75 -13 -138 3 l-70 17 -114 -33
c-64 -18 -117 -33 -118 -33 -2 0 -3 15 -3 33 l0 33 363 82 c199 45 365 82 370
82 4 0 7 -44 7 -97 0 -76 4 -100 17 -115 14 -16 14 -18 1 -18 -9 0 -21 7 -28
15 -7 8 -21 15 -31 15 -17 0 -19 -8 -19 -67 0 -63 1 -65 18 -50 26 24 50 23
29 -1 -12 -13 -17 -37 -17 -85 0 -60 2 -67 20 -67 17 0 20 7 20 50 0 49 1 50
30 50 30 0 30 -1 30 -53 0 -29 -5 -58 -12 -65 -9 -9 -7 -17 9 -34 12 -13 27
-36 32 -51 13 -33 41 -199 41 -240 l0 -28 -46 31 c-25 18 -47 30 -49 28 -2 -2
10 -91 28 -198 27 -160 36 -195 50 -198 15 -3 17 6 17 62 0 57 2 66 18 66 16
0 32 -46 102 -285 67 -230 87 -285 100 -285 24 0 40 22 47 64 7 42 29 48 58
16 23 -25 49 -27 42 -2 -35 121 -35 132 2 113 11 -6 25 -29 31 -51 10 -36 14
-40 44 -40 l33 0 -48 242 c-27 133 -49 248 -49 255 0 18 20 16 42 -4 17 -15
18 -12 18 105 0 66 -7 202 -16 302 -15 171 -15 183 2 201 16 18 16 19 -1 19
-17 0 -17 1 -1 19 17 19 17 25 1 120 -16 94 -16 104 0 151 17 50 17 50 -15
146 -18 52 -29 98 -26 102 4 3 53 16 109 29 56 13 127 35 157 50 48 24 55 32
58 61 l3 32 -135 0 c-107 0 -136 3 -136 13 0 21 -33 46 -68 53 -18 4 -32 13
-32 20 0 8 1 14 3 15 1 0 47 8 102 17 77 14 101 21 103 34 3 15 -10 18 -120
20 l-123 3 -132 578 c-72 319 -134 585 -136 591 -3 8 -34 15 -80 19 -87 6
-158 34 -182 71 -19 28 -32 30 -123 15z m-51 -799 c4 -14 35 -128 69 -254 l62
-229 -17 -43 c-21 -55 -79 -106 -148 -128 -30 -11 -98 -20 -164 -23 l-113 -6
29 79 c24 64 210 552 236 617 10 25 37 17 46 -13z m-311 -192 c0 -7 -23 -82
-51 -165 -59 -179 -75 -193 -102 -93 -10 33 -17 62 -17 65 0 11 34 4 50 -10
16 -14 20 -7 50 100 27 94 36 115 51 115 11 0 19 -6 19 -12z m-384 -313 c-13
-51 -26 -75 -41 -75 -21 0 -20 58 2 82 24 27 47 24 39 -7z m214 -162 c0 -50
-20 -83 -50 -83 -16 0 -16 4 -2 65 12 50 20 65 34 65 15 0 18 -8 18 -47z
m-280 12 c0 -22 -63 -125 -76 -125 -17 0 -17 2 7 93 9 32 14 37 39 37 17 0 30
-2 30 -5z m890 -33 c0 -13 -31 -37 -65 -50 -92 -36 -305 -56 -305 -28 0 10 19
18 53 25 28 6 102 22 162 35 123 26 155 30 155 18z m620 -1089 c6 -21 14 -66
17 -100 5 -53 3 -63 -10 -63 -20 0 -36 52 -44 138 -5 52 -3 62 10 62 10 0 20
-15 27 -37z m-280 -58 c0 -37 -10 -44 -75 -61 -23 -6 -25 -3 -25 28 0 32 3 36
48 50 26 9 48 17 50 17 1 1 2 -15 2 -34z"/>
<path d="M28645 24746 c-27 -7 -88 -29 -135 -49 -47 -20 -91 -37 -98 -37 -16
0 -15 -5 8 -140 l20 -115 -46 -259 c-36 -202 -44 -264 -35 -278 14 -22 14 -31
1 -23 -13 8 -13 -1 1 -23 8 -13 -28 -184 -154 -727 -152 -660 -162 -712 -148
-734 14 -21 13 -25 -3 -36 -15 -12 -17 -23 -11 -80 6 -49 12 -68 26 -76 42
-22 54 -66 55 -209 1 -112 4 -136 16 -138 11 -2 21 19 38 78 17 57 28 80 40
80 13 0 15 -15 15 -100 0 -89 2 -102 22 -121 32 -33 71 -19 90 31 12 29 22 40
37 40 53 0 94 20 110 55 10 19 23 35 31 35 7 0 28 -19 46 -41 l33 -42 100 6
c121 7 243 40 404 107 65 26 212 87 327 134 424 174 682 320 832 471 82 82
143 180 143 232 0 28 -153 259 -259 391 -90 111 -171 184 -240 215 l-44 19 96
90 c80 74 97 95 97 119 0 16 -2 29 -4 29 -3 0 -38 -18 -79 -40 -102 -55 -179
-80 -249 -80 -72 0 -77 18 -15 56 169 105 272 198 317 286 16 34 30 67 30 75
0 18 64 17 80 -2 11 -13 11 -20 0 -40 -10 -19 -10 -28 -1 -38 9 -11 6 -27 -14
-71 -14 -31 -25 -60 -25 -65 0 -8 61 -22 68 -16 8 7 33 278 30 323 -4 42 -11
59 -32 80 -15 15 -58 75 -96 133 -69 106 -164 207 -257 271 -66 45 -208 110
-297 135 l-81 23 63 -5 c55 -5 62 -4 62 12 0 14 -18 24 -77 41 -81 25 -93 22
-93 -24 0 -17 -5 -20 -30 -16 -16 2 -59 -1 -96 -8 -62 -12 -66 -12 -89 10 -24
22 -26 22 -137 11 -62 -6 -131 -14 -153 -17 -37 -5 -45 -2 -87 35 -50 45 -68
48 -153 27z m1151 -467 c28 -27 32 -53 7 -45 -10 3 -67 17 -128 32 -60 14
-114 29 -119 34 -23 22 10 26 110 14 85 -11 112 -18 130 -35z m-237 -29 c126
-31 265 -109 246 -139 -9 -16 -30 -13 -45 4 -19 23 -26 19 -44 -25 -20 -49
-20 -50 -1 -50 13 0 15 -7 9 -35 -5 -30 -4 -35 13 -35 44 0 85 51 98 123 6 28
11 37 22 33 8 -3 23 -6 34 -6 16 0 18 -5 12 -32 -26 -140 -166 -269 -370 -339
-31 -10 -58 -18 -59 -16 -2 1 51 38 116 82 110 74 139 100 126 113 -3 3 -115
-43 -248 -101 l-243 -106 -3 29 c-3 27 -7 30 -40 29 -20 0 -88 -6 -150 -13
-62 -7 -115 -10 -117 -6 -2 3 -5 64 -6 136 -2 100 1 140 14 179 32 94 105 158
217 190 77 21 304 14 419 -15z m101 -1026 c115 -9 240 -48 240 -74 0 -11 -3
-20 -7 -20 -5 0 -86 16 -180 37 -150 32 -173 39 -173 55 0 14 5 18 18 14 9 -3
55 -8 102 -12z m-84 -94 c225 -28 297 -57 328 -132 l16 -37 -43 -35 c-55 -45
-505 -266 -692 -340 -335 -132 -506 -150 -504 -53 0 17 21 156 48 307 l47 275
29 3 c60 6 472 29 538 31 38 0 142 -8 233 -19z m461 -169 c11 -18 7 -23 -50
-57 -34 -20 -65 -39 -69 -41 -4 -2 9 23 30 56 40 65 67 77 89 42z m221 -161
c7 -11 19 -20 27 -20 42 0 -7 -77 -86 -135 -71 -52 -205 -129 -305 -175 -133
-61 -297 -130 -301 -127 -2 2 25 21 59 42 256 157 493 332 535 396 28 43 52
49 71 19z"/>
<path d="M29635 23993 c-34 -27 -43 -39 -32 -41 20 -4 87 45 87 64 0 19 0 19
-55 -23z"/>
<path d="M16307 24625 c-40 -81 -44 -95 -25 -95 6 0 19 -7 28 -15 14 -13 20
-7 58 56 24 40 42 83 42 100 0 26 -3 29 -33 29 -31 0 -35 -4 -70 -75z"/>
<path d="M20143 24466 c-294 -230 -298 -233 -303 -205 l-5 29 -85 -65 -85 -66
-132 -237 c-73 -130 -133 -246 -133 -258 0 -70 139 -238 311 -375 48 -38 89
-69 92 -69 3 0 8 12 11 26 5 18 2 32 -11 46 -20 23 -36 28 169 -56 75 -31 139
-56 142 -56 3 0 6 7 6 16 0 22 59 11 180 -33 78 -29 335 -145 347 -157 2 -2
-2 -27 -8 -57 -32 -153 -166 -294 -362 -383 -158 -72 -453 -151 -609 -163 -74
-6 -78 -5 -119 26 -24 17 -47 31 -53 31 -5 0 -31 -14 -58 -31 l-48 -31 0 -57
c0 -101 51 -220 109 -255 8 -5 56 -50 105 -101 101 -102 162 -138 264 -157 39
-7 62 -16 62 -25 0 -10 -21 -13 -85 -13 l-85 0 0 -35 c0 -19 4 -35 9 -35 18 0
252 50 350 75 117 29 217 72 245 103 l19 22 -37 0 c-30 0 -37 3 -34 18 3 13
25 21 107 35 116 20 129 27 288 155 111 88 257 233 319 316 91 121 169 277
180 359 5 39 1 48 -59 132 -228 318 -519 535 -868 649 -57 19 -104 39 -103 45
1 6 2 15 3 20 0 6 34 36 74 69 278 227 576 349 899 369 84 5 98 9 98 23 0 23
-20 38 -58 46 -18 4 -32 13 -32 20 0 11 22 14 99 14 78 0 100 3 104 15 4 8 2
17 -2 19 -8 5 -199 36 -221 36 -5 0 -10 7 -10 15 0 12 16 15 85 15 74 0 85 2
85 18 0 9 3 26 6 38 4 15 -7 34 -41 72 -77 86 -200 132 -397 148 -63 5 -88 11
-88 20 0 10 28 14 118 16 96 2 117 6 117 18 0 13 -30 16 -185 22 -189 6 -289
19 -349 44 -18 8 -35 14 -36 14 -2 0 -138 -105 -302 -234z m715 -238 l-3 -31
-140 -36 -140 -36 -291 -183 c-161 -100 -294 -182 -298 -182 -3 0 -6 6 -6 14
0 21 140 138 259 217 185 121 498 267 579 268 43 1 43 1 40 -31z m-588 -1767
c0 -12 -65 -61 -81 -61 -7 0 2 16 21 35 32 33 60 45 60 26z m533 -75 c-27 -46
-131 -156 -147 -156 -19 0 -19 1 0 23 11 12 44 50 74 85 29 34 59 62 67 62 9
0 11 -5 6 -14z m-285 -202 c-20 -20 -134 -94 -145 -94 -7 0 -13 8 -13 18 0 13
21 27 78 49 84 34 88 36 80 27z m-240 -281 c-4 -22 -104 -42 -220 -42 -68 -1
-88 2 -88 13 0 10 30 18 108 28 156 22 204 22 200 1z"/>
<path d="M22108 24465 c-292 -230 -297 -233 -300 -203 l-3 30 -86 -65 -86 -65
-133 -238 c-121 -217 -132 -241 -127 -277 11 -80 127 -216 312 -364 l90 -72 3
35 c2 20 -2 42 -9 50 -6 8 60 -15 146 -51 141 -57 159 -63 170 -48 10 14 18
14 66 3 76 -18 193 -63 338 -132 l124 -58 -6 -50 c-28 -239 -321 -432 -802
-529 -196 -40 -233 -40 -291 0 -49 33 -52 33 -114 -6 l-42 -27 4 -82 c5 -99
40 -181 95 -224 19 -15 72 -64 116 -110 92 -94 182 -146 272 -157 37 -5 55
-12 55 -21 0 -11 -19 -14 -84 -14 -67 0 -85 -3 -90 -16 -9 -24 -7 -54 4 -54
23 0 307 63 387 85 96 28 215 83 221 103 2 8 -7 12 -27 12 -23 0 -31 5 -31 18
0 16 14 21 88 32 48 7 101 18 117 25 92 38 378 286 487 423 99 124 208 337
208 404 -1 34 -122 198 -230 311 -210 220 -417 353 -695 448 -85 29 -110 42
-110 55 0 20 115 121 220 192 102 69 277 154 391 190 116 37 309 72 400 72 56
0 64 2 64 19 0 24 -19 39 -58 47 -18 4 -32 13 -32 20 0 11 22 14 100 14 91 0
100 2 100 19 0 16 -15 21 -115 36 -80 12 -115 22 -115 31 0 10 22 14 83 16
l82 3 3 40 c8 112 -181 211 -440 230 -66 5 -88 10 -88 21 0 11 23 14 120 14
110 0 120 2 120 19 0 17 -13 19 -187 24 -192 6 -297 19 -345 43 -15 8 -31 14
-35 14 -4 -1 -142 -106 -305 -235z m712 -238 l0 -33 -137 -33 -138 -34 -293
-184 c-161 -100 -295 -183 -297 -183 -3 0 -5 6 -5 14 0 16 70 83 156 148 176
135 580 336 677 337 35 1 37 0 37 -32z m-610 -1792 c-19 -19 -42 -35 -52 -35
-13 0 -8 9 20 35 49 46 77 46 32 0z m542 -72 c-69 -86 -119 -136 -131 -132
-16 6 124 169 145 169 11 0 7 -10 -14 -37z m-286 -191 c-13 -21 -117 -84 -131
-78 -31 12 -13 32 53 58 72 29 86 32 78 20z m-228 -269 c-4 -23 -101 -42 -215
-43 -64 0 -83 3 -83 14 0 10 30 18 108 28 156 22 194 22 190 1z"/>
<path d="M15050 24635 c-36 -37 -70 -45 -90 -20 -7 8 -20 15 -30 15 -25 0 -33
-95 -9 -116 20 -18 48 -18 68 0 15 13 16 10 11 -37 -4 -37 -23 -87 -65 -169
-52 -104 -58 -120 -45 -133 10 -10 14 -30 12 -65 -3 -41 -7 -50 -23 -50 -15 0
-17 5 -13 29 6 31 -10 51 -28 33 -7 -7 -7 -35 2 -90 12 -73 12 -83 -8 -142
-25 -72 -28 -110 -10 -128 9 -9 8 -12 -4 -12 -36 0 -157 -604 -203 -1009 -15
-130 -15 -145 -1 -159 14 -15 14 -18 -6 -39 -20 -22 -22 -35 -28 -310 -6 -251
-10 -296 -28 -350 -11 -35 -17 -65 -14 -67 35 -21 220 -96 237 -96 34 0 198
152 208 193 11 39 24 56 54 68 15 6 23 17 23 32 0 13 14 181 30 372 25 283 29
364 21 433 -8 76 -7 90 11 131 14 31 25 92 34 190 11 123 65 472 80 524 12 38
31 16 37 -42 8 -76 48 -200 107 -336 31 -71 51 -131 55 -170 16 -142 41 -212
85 -238 16 -10 61 -53 101 -97 42 -47 80 -80 91 -80 28 0 118 89 140 138 11
23 22 61 26 85 7 38 10 42 40 45 l32 3 0 -47 c0 -42 -5 -53 -37 -86 -29 -30
-34 -41 -25 -50 18 -18 14 -53 -8 -73 -54 -49 5 -62 63 -14 50 41 85 103 101
180 22 107 121 361 208 533 66 132 168 283 168 249 0 -6 -47 -309 -105 -674
-57 -365 -107 -687 -111 -715 -4 -36 0 -80 17 -153 l23 -102 -22 -92 c-12 -51
-22 -97 -22 -104 0 -6 43 -41 95 -78 88 -61 99 -66 141 -63 l47 3 14 55 c15
59 52 107 87 112 13 2 22 12 24 25 4 30 50 73 78 73 16 0 25 7 28 23 3 12 23
227 45 477 35 407 38 457 24 472 -13 15 -13 17 8 20 12 2 27 11 33 20 8 14 5
23 -19 48 l-29 30 33 34 33 34 -26 34 -26 34 35 34 c37 36 45 70 20 90 -17 15
-15 35 30 296 l34 192 -25 93 c-13 52 -24 97 -24 102 0 4 15 7 34 7 l34 0 4
68 c3 50 0 72 -11 85 -14 17 -14 20 2 32 12 9 20 32 24 68 6 55 5 57 -53 144
-77 117 -177 217 -233 234 -35 10 -44 10 -51 -1 -7 -11 -18 -7 -56 18 -34 22
-53 28 -64 22 -64 -34 -264 -364 -502 -827 l-110 -213 -33 0 -34 0 138 243
c363 640 361 637 327 637 -27 0 -66 -53 -290 -393 -126 -191 -230 -346 -232
-344 -2 2 -13 52 -24 113 -62 321 -138 547 -194 576 -12 6 -41 33 -65 60 -64
72 -221 145 -221 103 0 -13 -11 -9 -49 19 -65 48 -105 49 -151 1z m1387 -602
c-14 -47 -57 -141 -106 -232 -176 -325 -312 -623 -327 -719 -5 -31 -11 -42
-25 -42 -13 0 -20 13 -29 53 -12 52 -11 55 30 152 131 308 250 537 383 737 50
75 92 136 94 134 2 -1 -8 -39 -20 -83z m133 -203 c0 -11 -7 -23 -15 -26 -24
-9 -29 -43 -9 -65 16 -18 16 -19 -1 -19 -17 0 -17 -1 -1 -18 15 -18 13 -40
-29 -353 -53 -392 -51 -379 -72 -379 -13 0 -15 8 -10 53 3 28 20 219 38 422
33 384 37 405 81 405 11 0 18 -7 18 -20z m-203 -1794 c11 -49 9 -63 -13 -135
-19 -61 -29 -81 -42 -81 -17 0 -17 7 -6 123 7 67 13 128 13 135 1 6 9 12 19
12 14 0 21 -13 29 -54z"/>
<path d="M26345 24603 c-3 -27 -17 -118 -32 -205 -23 -140 -25 -164 -14 -232
16 -112 15 -156 -6 -156 -9 0 -24 7 -34 16 -17 15 -18 14 -23 -18 -5 -29 -42
-317 -65 -506 -6 -47 -4 -65 6 -73 19 -17 17 -30 -22 -111 -29 -59 -33 -74
-20 -76 8 -2 15 -6 15 -10 0 -3 -25 -138 -55 -298 -30 -161 -55 -302 -55 -313
0 -14 6 -21 20 -21 16 0 20 7 20 30 0 20 5 30 15 30 11 0 15 -12 15 -50 0 -36
4 -50 14 -50 15 0 26 61 26 146 0 57 -13 72 -42 46 -23 -19 -23 -9 -1 71 20
76 24 81 60 73 l28 -7 -12 -167 c-10 -144 -9 -169 3 -183 13 -14 12 -18 -6
-30 -23 -16 -49 -79 -50 -121 0 -21 -5 -28 -20 -28 -18 0 -19 5 -13 85 l6 85
-34 0 c-31 0 -32 -1 -17 -16 15 -15 12 -31 -33 -205 -60 -233 -65 -304 -20
-341 16 -14 56 -32 89 -42 l60 -16 718 105 c396 58 753 110 794 116 41 6 76
12 77 13 2 1 6 16 9 33 l6 31 -58 6 c-33 3 -94 8 -136 11 -53 5 -78 11 -78 19
0 9 33 15 118 19 137 7 218 32 270 83 28 28 32 39 32 82 0 28 -4 54 -10 57
-20 12 -9 25 21 25 28 0 30 2 27 32 -3 31 -6 33 -83 56 -77 22 -89 23 -350 18
-148 -3 -335 -12 -415 -20 -80 -8 -214 -22 -299 -31 -84 -9 -219 -24 -299 -35
-80 -11 -147 -18 -148 -17 -2 1 12 106 29 232 28 202 34 230 51 233 17 4 18
-2 12 -65 -20 -230 -20 -245 0 -241 14 2 39 56 100 218 76 198 81 216 67 233
-15 16 -13 17 28 18 416 4 897 90 1125 199 89 43 147 98 142 133 -3 19 -17 25
-115 46 -95 21 -113 28 -113 43 0 16 5 18 35 12 30 -5 35 -4 35 12 0 11 -7 28
-15 38 -14 19 -24 18 -467 -18 -249 -20 -464 -36 -478 -36 l-26 0 30 218 c16
119 30 218 31 219 0 1 158 18 351 38 458 46 434 42 434 66 0 23 -23 24 -206 8
-125 -11 -127 -11 -143 10 -17 22 -19 22 -121 11 -58 -6 -142 -7 -187 -4 l-83
7 0 32 0 32 108 7 c59 3 267 13 462 21 195 8 371 20 391 25 69 19 137 108 172
227 l16 53 -82 56 -82 56 -460 -7 c-253 -4 -547 -8 -652 -10 -127 -1 -197 -6
-206 -14 -11 -9 -17 -8 -26 3 -17 21 -49 26 -62 10 -15 -18 -35 -18 -43 1 -3
8 -14 15 -25 15 -16 0 -21 -9 -26 -47z m-171 -1540 c-7 -126 -8 -133 -29 -133
-13 0 -14 13 -10 88 9 126 14 152 31 152 12 0 14 -16 8 -107z"/>
<path d="M27140 23109 c-63 -10 -130 -21 -147 -24 -26 -5 -33 -2 -33 10 0 17
-61 20 -218 9 -77 -6 -92 -10 -92 -24 0 -9 8 -24 18 -33 17 -16 39 -15 313 13
162 17 300 30 307 30 6 0 12 9 12 20 0 24 -6 24 -160 -1z"/>
<path d="M18384 22483 c3 -10 10 -55 17 -100 10 -69 16 -83 31 -83 16 0 18 10
18 100 l0 100 -36 0 c-29 0 -34 -3 -30 -17z"/>
<path d="M18287 18235 l125 -376 66 3 67 3 87 284 c48 156 89 285 90 287 2 2
32 -90 66 -204 34 -114 74 -244 88 -290 l26 -83 65 3 66 3 119 355 c65 195
121 363 124 373 5 15 -2 17 -60 17 l-65 0 -20 -67 c-12 -38 -51 -170 -88 -295
-37 -126 -70 -228 -73 -228 -5 0 -33 90 -167 543 l-15 47 -62 0 -63 0 -89
-299 c-49 -165 -92 -297 -95 -293 -3 4 -34 102 -67 217 -34 116 -73 247 -87
293 l-26 82 -69 0 -68 0 125 -375z"/>
<path d="M19460 18235 l0 -375 275 0 275 0 0 55 0 55 -210 0 -210 0 0 105 0
105 180 0 180 0 0 55 0 55 -180 0 -180 0 0 105 0 105 205 0 205 0 0 55 0 55
-270 0 -270 0 0 -375z"/>
<path d="M20250 18234 l0 -376 223 4 c236 4 256 8 321 59 100 78 83 251 -30
310 l-50 26 38 22 c95 54 105 201 19 274 -56 47 -114 57 -328 57 l-193 0 0
-376z m369 260 c99 -20 110 -148 14 -185 -13 -5 -76 -9 -139 -9 l-114 0 0 100
0 100 104 0 c57 0 117 -3 135 -6z m58 -328 c73 -44 70 -136 -6 -173 -27 -13
-68 -18 -163 -21 l-128 -4 0 112 0 112 133 -4 c106 -3 138 -7 164 -22z"/>
<path d="M21470 18236 l0 -376 65 0 65 0 0 114 0 114 143 4 c122 3 148 7 184
26 90 47 135 124 135 231 0 111 -42 185 -131 228 -55 27 -61 28 -258 31 l-203
4 0 -376z m395 242 c57 -30 70 -53 70 -128 0 -62 -3 -72 -28 -98 -38 -40 -86
-52 -206 -52 l-101 0 0 151 0 151 118 -4 c80 -3 126 -9 147 -20z"/>
<path d="M22280 18235 l0 -375 65 0 65 0 0 115 0 115 105 0 104 0 68 -115 68
-114 73 -1 72 0 -80 120 c-44 66 -80 123 -79 127 0 4 21 22 47 38 67 43 96
105 97 204 0 99 -29 162 -98 208 -65 44 -122 53 -327 53 l-180 0 0 -375z m412
241 c20 -10 45 -30 55 -44 24 -37 23 -128 -1 -165 -34 -50 -69 -61 -208 -65
l-128 -4 0 152 0 152 123 -4 c89 -3 132 -9 159 -22z"/>
<path d="M23353 18596 c-183 -59 -293 -235 -263 -420 27 -165 158 -290 330
-315 182 -25 349 61 424 219 27 58 31 75 31 155 0 80 -3 97 -31 155 -40 82
-99 141 -183 183 -58 28 -75 32 -165 34 -65 2 -116 -2 -143 -11z m201 -107
c61 -15 134 -75 165 -134 36 -69 36 -169 1 -239 -125 -246 -504 -157 -504 119
0 174 164 298 338 254z"/>
<path d="M24070 18555 l0 -55 131 0 130 0 -3 -236 -3 -236 -28 -24 c-49 -42
-159 -23 -212 36 -18 20 -19 20 -47 -22 -15 -24 -28 -48 -28 -55 0 -17 59 -63
109 -86 29 -13 67 -19 108 -19 111 0 196 58 223 153 6 19 10 161 10 316 l0
283 -195 0 -195 0 0 -55z"/>
<path d="M24730 18235 l0 -375 275 0 275 0 0 55 0 55 -210 0 -210 0 0 105 0
105 180 0 180 0 0 55 0 55 -180 0 -180 0 0 105 0 105 205 0 205 0 0 55 0 55
-270 0 -270 0 0 -375z"/>
<path d="M25733 18596 c-108 -35 -206 -125 -244 -224 -30 -78 -30 -195 1 -275
74 -196 323 -295 522 -208 47 21 128 77 128 89 -1 4 -16 24 -34 45 l-33 37
-52 -34 c-123 -83 -265 -66 -364 43 -124 137 -52 371 131 422 81 22 196 -6
260 -64 l23 -22 20 25 c54 68 55 70 28 92 -13 11 -53 34 -89 51 -57 27 -77 32
-160 34 -60 2 -110 -2 -137 -11z"/>
<path d="M26270 18555 l0 -55 120 0 120 0 0 -320 0 -320 65 0 65 0 0 320 0
320 120 0 120 0 0 55 0 55 -305 0 -305 0 0 -55z"/>
</g>
</svg>
