<?xml version="1.0" encoding="UTF-8"?>
<svg width="100pt" height="100pt" version="1.1" viewBox="0 0 100 100" xmlns="http://www.w3.org/2000/svg">
 <path d="m93.23 23.887c-1.4219 0-2.6016 1.0156-2.8633 2.3555l-4.0742-0.13672c-0.33203-1.7695-1.8828-3.1055-3.7461-3.1055-0.23828 0-0.46875 0.027344-0.69531 0.070312l-1.5703-4.7109c0.52344-0.39453 0.86328-1.0156 0.86328-1.7188 0-1.1914-0.96094-2.1641-2.1562-2.1641-1.1953 0-2.1641 0.97266-2.1641 2.1641s0.97266 2.1602 2.1641 2.1602c0.11328 0 0.22266-0.015625 0.33203-0.03125l1.5469 4.6406c-1.2578 0.625-2.1328 1.9062-2.1328 3.4062 0 1.2734 0.63281 2.3945 1.5898 3.0859l-4.5703 6.4336c-0.48828-0.22656-1.0273-0.36328-1.6016-0.36328-1.9492 0-3.543 1.4805-3.7656 3.375l-8.7031-0.87109c-0.023438-2.3672-1.9492-4.2852-4.3242-4.2852-0.28906 0-0.57422 0.03125-0.84766 0.085938l-2.4492-8.5742c1.5039-0.82031 2.5352-2.3945 2.5352-4.2305 0-0.62891-0.12891-1.2266-0.34766-1.7773l2.5078-1.2539c0.74219 0.76953 1.7773 1.25 2.9297 1.25 2.25 0 4.0781-1.8164 4.0781-4.0703 0-0.26172-0.03125-0.51562-0.078125-0.76562l5.4648-2.2773c0.39453 0.53125 1.0195 0.87891 1.7344 0.87891 1.1953 0 2.1562-0.97266 2.1562-2.1641 0-1.1914-0.96094-2.1602-2.1562-2.1602-1.1953 0-2.168 0.96484-2.168 2.1602 0 0.10938 0.015625 0.21875 0.03125 0.32422l-5.3984 2.25c-0.65625-1.3672-2.0469-2.3164-3.6641-2.3164-0.60547 0-1.1719 0.14062-1.6875 0.375l-1.4688-2.5977c0.52344-0.39453 0.86328-1.0156 0.86328-1.7227 0-1.1914-0.96484-2.1602-2.1562-2.1602-1.1953 0-2.168 0.96875-2.168 2.1602 0 1.1953 0.97266 2.1641 2.168 2.1641 0.10938 0 0.21484-0.015625 0.31641-0.03125l1.5625 2.7461c-0.91016 0.74609-1.5039 1.8672-1.5039 3.1367 0 0.71484 0.19922 1.375 0.52344 1.957l-2.3711 1.1836c-0.86719-1.2812-2.3359-2.1211-4.0039-2.1211-2.6641 0-4.832 2.1641-4.832 4.832 0 2.6719 2.168 4.8359 4.832 4.8359 0.46484 0 0.90234-0.085938 1.3242-0.20703l2.4336 8.5156c-1.4648 0.69531-2.4844 2.1758-2.4844 3.9023 0 1.2109 0.50391 2.3047 1.3086 3.0898l-3.8867 4.9805c-0.81641-0.58984-1.8086-0.94531-2.8867-0.94531-2.4023 0-4.4062 1.707-4.8633 3.9688l-6.7383-1.1523c0.003906-0.09375 0.027344-0.17969 0.027344-0.27344 0-2.6719-2.1719-4.8359-4.832-4.8359-0.85156 0-1.6406 0.23828-2.3359 0.625l-5.3008-8.7109c1.0742-0.73438 1.7812-1.9648 1.7812-3.3672 0-0.16797-0.03125-0.32813-0.050782-0.48828l2.3477-0.56641c0.41016 0.85156 1.2773 1.4414 2.2812 1.4414 1.4023 0 2.543-1.1406 2.543-2.543 0-1.4023-1.1406-2.543-2.543-2.543-1.4023 0-2.5469 1.1406-2.5469 2.543 0 0.03125 0.007812 0.058593 0.007812 0.085937l-2.3398 0.5625c-0.28906-0.72266-0.78125-1.3359-1.4023-1.7852l2.0508-4.8906c0.35156 0.18359 0.74609 0.30078 1.1719 0.30078 1.4062 0 2.5508-1.1367 2.5508-2.543 0-1.4023-1.1406-2.5391-2.5508-2.5391-1.4023 0-2.543 1.1367-2.543 2.5391 0 0.58203 0.20312 1.1133 0.53125 1.5391l-2.1367 5.0977c-0.44922-0.17188-0.93359-0.27734-1.4453-0.27734-2.1602 0-3.9102 1.6836-4.043 3.8086l-5.3711-1.0469c-0.019531-1.3906-1.1484-2.5078-2.543-2.5078-1.4062 0-2.543 1.1367-2.543 2.543s1.1406 2.543 2.543 2.543c1.0547 0 1.9609-0.64062 2.3438-1.5547l5.6211 1.0977c0.37891 1.8555 2.0195 3.2539 3.9883 3.2539 0.47266 0 0.92188-0.097656 1.3438-0.24609l5.3867 8.8516c-1 0.88672-1.6445 2.1641-1.6445 3.6055 0 1.3359 0.54297 2.543 1.418 3.418l-1.6133 2.418c-0.92188-0.63281-2.0352-1.0078-3.2422-1.0078-3.1562 0-5.7227 2.5625-5.7227 5.7305 0 3.1562 2.5625 5.7148 5.7227 5.7148 0.86328 0 1.6758-0.19531 2.4102-0.53516l2.7461 5.043c-1.8086 1.2383-2.9922 3.3164-2.9922 5.6758 0 1.9062 0.78125 3.6367 2.043 4.8828l-4.5469 4.7148c-0.65234-0.58594-1.5078-0.95312-2.4531-0.95312-2.0352 0-3.6875 1.6484-3.6875 3.6836s1.6523 3.6914 3.6875 3.6914c2.0391 0 3.6875-1.6523 3.6875-3.6914 0-0.70703-0.21094-1.3633-0.55469-1.9258l4.668-4.8516c1.1328 0.82422 2.5234 1.3125 4.0273 1.3125 3.1719 0 5.8359-2.1602 6.625-5.0859l5.8516 0.79297c0.15234 3.0938 2.7031 5.5586 5.8359 5.5586 1.3477 0 2.5859-0.46094 3.5703-1.2227l2.5781 4.3984c-0.79688 0.67578-1.3125 1.668-1.3125 2.7969 0 2.0352 1.6562 3.6914 3.6914 3.6914 2.0391 0 3.6914-1.6562 3.6914-3.6914 0-2.0391-1.6523-3.6836-3.6914-3.6836-0.53516 0-1.0391 0.11719-1.4961 0.32031l-2.6758-4.5625c0.92969-1.0352 1.4961-2.3984 1.4961-3.8984 0-1.7383-0.76172-3.2969-1.9688-4.3672l1.8281-2.9258c0.67188 0.26953 1.4023 0.42188 2.1719 0.42188 2.6445 0 4.8828-1.7578 5.6094-4.1641l7.8164-1.1172c0.64453 0.88281 1.6836 1.4648 2.8633 1.4648 0.77734 0 1.4883-0.25391 2.0742-0.67578l3.3242 2.7891c-0.19141 0.35547-0.30859 0.75781-0.30859 1.1914 0 1.4062 1.1367 2.5508 2.543 2.5508 1.3984 0 2.543-1.1406 2.543-2.5508 0-1.4023-1.1445-2.5469-2.543-2.5469-0.59375 0-1.1289 0.21094-1.5625 0.55078l-3.2461-2.7266c0.45703-0.59766 0.73828-1.3398 0.73828-2.1484 0-1.3906-0.80469-2.582-1.9648-3.1719l0.62891-2.2031c0.10547 0.011719 0.21094 0.03125 0.31641 0.03125 1.6875 0 3.0508-1.3633 3.0508-3.0508 0-1.5156-1.1055-2.7656-2.5586-3.0039l-1.3672-8.2188c1.125-0.66406 1.8906-1.875 1.8906-3.2734 0-1.1602-0.52734-2.1836-1.3438-2.8867l4.6289-6.5156c0.40234 0.14453 0.83594 0.23828 1.2891 0.23828 0.73828 0 1.4258-0.21875 2.0117-0.58594l1.5625 1.5117c-0.24219 0.35156-0.39062 0.77344-0.39062 1.2344 0 1.1992 0.96484 2.1641 2.1602 2.1641s2.168-0.96484 2.168-2.1641c0-1.1953-0.97266-2.1602-2.168-2.1602-0.35156 0-0.67969 0.089843-0.97266 0.23828l-1.5547-1.5039c0.53906-0.59766 0.88672-1.3594 0.96484-2.207l4.0273 0.13672c0.23047 1.3867 1.4219 2.4453 2.875 2.4453 1.6133 0 2.9297-1.3086 2.9297-2.9258 0.015625-1.5898-1.3008-2.9023-2.9141-2.9023zm-39.949 48.055c-0.89062-0.54297-1.9297-0.86328-3.0469-0.86328-2.9688 0-5.4219 2.2227-5.793 5.0938l-5.6914-0.76953c0.027344-0.25 0.042969-0.50391 0.042969-0.76172 0-3.8008-3.0781-6.8789-6.8672-6.8789-1.0625 0-2.0664 0.25-2.9648 0.67969l-2.7539-5.0469c1.457-1.0352 2.4102-2.7305 2.4102-4.6523 0-1.5859-0.64063-3.0156-1.6758-4.0547l1.6289-2.4414c0.75 0.48047 1.6367 0.76562 2.5938 0.76562 2.207 0 4.0547-1.4961 4.6328-3.5234l6.8203 1.1641c0.03125 2.7109 2.2383 4.8984 4.9609 4.8984 0.73828 0 1.4336-0.17188 2.0625-0.46484l4.3203 5.0117c-1.0391 1.0547-1.6836 2.5039-1.6836 4.1016 0 2.0898 1.1016 3.9219 2.75 4.957zm23.109-20.652c-1.4141 0.26563-2.4883 1.5078-2.4883 2.9961 0 1.2109 0.71094 2.2422 1.7305 2.7383l-0.61328 2.1484c-0.19531-0.035156-0.39844-0.0625-0.60547-0.0625-1.9688 0-3.5586 1.6016-3.5586 3.5625 0 0.39453 0.078125 0.76172 0.19531 1.1133l-7.0977 1.0156c0.019531-0.19922 0.03125-0.39844 0.03125-0.60547 0-3.2305-2.6289-5.8516-5.8594-5.8516-1.2539 0-2.4141 0.39844-3.3672 1.0703l-4.2109-4.8828c1.1953-0.90625 1.9844-2.3242 1.9844-3.9414 0-1.2773-0.49609-2.4336-1.293-3.3125l3.9531-5.0547c0.64062 0.37891 1.3789 0.60938 2.1758 0.60938 2.0469 0 3.75-1.4258 4.2031-3.332l8.8438 0.88672c0.29297 1.8164 1.8555 3.207 3.75 3.207 0.32422 0 0.63281-0.050781 0.93359-0.12891z"/>
</svg>
